<svg width="16" height="24" viewBox="0 0 16 24" fill="none" xmlns="http://www.w3.org/2000/svg">
<path d="M11.4787 8.20927C11.4787 6.23018 9.89546 4.61646 7.94682 4.61646C5.90683 4.61646 4.354 6.23018 4.354 8.20927C4.354 10.2188 5.90683 11.8021 7.94682 11.8021C9.89546 11.8021 11.4787 10.2188 11.4787 8.20927ZM0 8.20927C0 3.79437 3.53192 0.262451 7.94682 0.262451C12.3008 0.262451 15.8327 3.79437 15.8327 8.20927C15.8327 12.5937 12.3008 16.1256 7.94682 16.1256C3.53192 16.1256 0 12.5937 0 8.20927ZM4.90206 17.7698C5.54146 18.7441 6.66802 19.414 7.94682 19.414C9.16472 19.414 10.2913 18.7441 10.9307 17.7698C11.3874 17.1 12.0877 16.7041 12.8184 16.7041C13.1838 16.7041 13.5796 16.8259 13.9145 17.0391C14.9498 17.7394 15.2542 19.0486 14.6148 20.0838C13.1838 22.2761 10.7175 23.7375 7.94682 23.7375C5.08475 23.7375 2.61849 22.2761 1.18746 20.0838C0.578504 19.0486 0.852532 17.7394 1.88775 17.0391C2.28357 16.8259 2.64894 16.7041 3.04476 16.7041C3.7755 16.7041 4.4149 17.1 4.90206 17.7698Z" fill="white"/>
</svg>
