<svg width="127" height="24" viewBox="0 0 127 24" fill="none" xmlns="http://www.w3.org/2000/svg">
<path d="M122.396 8.90401C122.396 7.71655 123.401 6.71179 124.558 6.71179C125.806 6.71179 126.781 7.71655 126.781 8.90401V20.4436C126.781 21.6311 125.806 22.6054 124.558 22.6054C123.401 22.6054 122.396 21.6311 122.396 20.4436V8.90401ZM122.244 3.63658C122.244 2.32733 123.249 1.29211 124.558 1.29211C125.898 1.29211 126.963 2.32733 126.963 3.63658C126.963 4.94582 125.898 6.01149 124.558 6.01149C123.249 6.01149 122.244 4.94582 122.244 3.63658Z" fill="white"/>
<path d="M115.484 14.6586C115.484 12.6795 113.87 11.0658 111.921 11.0658C109.912 11.0658 108.328 12.6795 108.328 14.6586C108.328 16.6682 109.912 18.2514 111.921 18.2514C113.87 18.2514 115.484 16.6682 115.484 14.6586ZM104.005 14.6586C104.005 10.2437 107.567 6.71179 111.921 6.71179C116.306 6.71179 119.838 10.2437 119.838 14.6586V20.4437C119.838 21.6311 118.924 22.575 117.645 22.575C116.884 22.575 116.245 22.2096 115.879 21.6007C114.662 22.2096 113.352 22.575 111.921 22.575C107.567 22.575 104.005 19.0431 104.005 14.6586Z" fill="white"/>
<path d="M97.4118 20.2001C97.4118 18.8908 98.4775 17.8556 99.7867 17.8556C101.096 17.8556 102.131 18.8908 102.131 20.2001C102.131 21.5093 101.096 22.6054 99.7867 22.6054C98.4775 22.6054 97.4118 21.5093 97.4118 20.2001Z" fill="white"/>
<path d="M87.8984 14.0192C87.8984 10.0001 91.1867 6.71179 95.2058 6.71179C96.3628 6.71179 97.3371 7.68611 97.3371 8.90402C97.3371 10.0915 96.3628 11.0658 95.2058 11.0658C93.5007 11.0658 92.2219 12.375 92.2219 14.0192V20.535C92.2219 21.7529 91.2171 22.7272 90.0297 22.7272C88.8422 22.7272 87.8984 21.7529 87.8984 20.535V14.0192Z" fill="white"/>
<path d="M77.4915 14.0192C77.4915 10.0001 80.7798 6.71179 84.7989 6.71179C85.9559 6.71179 86.9302 7.68611 86.9302 8.90402C86.9302 10.0915 85.9559 11.0658 84.7989 11.0658C83.0938 11.0658 81.815 12.375 81.815 14.0192V20.535C81.815 21.7529 80.8102 22.7272 79.6228 22.7272C78.4353 22.7272 77.4915 21.7529 77.4915 20.535V14.0192Z" fill="white"/>
<path d="M59.8797 14.6586C59.8797 10.2437 63.4116 6.71179 67.7961 6.71179C71.5716 6.71179 74.7381 9.39118 75.5297 12.9535C75.956 14.8717 75.3471 16.181 73.0026 16.181H64.5077C65.0862 17.3989 66.3346 18.2514 67.7961 18.2514C68.7704 18.2514 69.6838 17.8556 70.2928 17.2162C70.7495 16.7899 71.2975 16.5464 71.8456 16.5464C72.4545 16.5464 73.0026 16.7899 73.368 17.2162C74.2509 18.0383 74.2509 19.4084 73.368 20.2914C71.9978 21.7225 69.9883 22.575 67.7961 22.575C63.4116 22.575 59.8797 19.0431 59.8797 14.6586ZM71.0235 13.1971C70.4754 11.9488 69.2271 11.0658 67.7961 11.0658C66.3346 11.0658 65.0862 11.9488 64.5077 13.1971H71.0235Z" fill="white"/>
<path d="M50.0145 11.0658C48.0354 11.0658 46.4521 12.6795 46.4521 14.6586C46.4521 16.6681 48.0354 18.2514 50.0145 18.2514C52.024 18.2514 53.5768 16.6681 53.5768 14.6586C53.5768 12.6795 52.024 11.0658 50.0145 11.0658ZM50.0145 22.575C45.6604 22.575 42.1285 19.0431 42.1285 14.6586C42.1285 10.2437 45.6604 6.71179 50.0145 6.71179C51.3237 6.71179 52.5112 7.01626 53.5768 7.56432V3.42345C53.5768 2.20554 54.5816 1.29211 55.7995 1.29211C56.9869 1.29211 57.9613 2.20554 57.9613 3.42345V14.6586C57.9613 19.0431 54.4294 22.575 50.0145 22.575Z" fill="white"/>
<path d="M35.5136 8.90401C35.5136 7.71655 36.5183 6.71179 37.6753 6.71179C38.9237 6.71179 39.898 7.71655 39.898 8.90401V20.4436C39.898 21.6311 38.9237 22.6054 37.6753 22.6054C36.5183 22.6054 35.5136 21.6311 35.5136 20.4436V8.90401ZM35.3613 3.63658C35.3613 2.32733 36.3661 1.29211 37.6753 1.29211C39.015 1.29211 40.0807 2.32733 40.0807 3.63658C40.0807 4.94582 39.015 6.01149 37.6753 6.01149C36.3661 6.01149 35.3613 4.94582 35.3613 3.63658Z" fill="white"/>
<path d="M18.2911 15.2676V8.90402C18.2911 7.71656 19.235 6.71179 20.4529 6.71179C21.6403 6.71179 22.6147 7.71656 22.6147 8.90402V15.2676C22.6147 16.9117 23.9544 18.2514 25.5985 18.2514C27.1818 18.2514 28.5824 16.9117 28.5824 15.2676V8.90402C28.5824 7.71656 29.5263 6.71179 30.7137 6.71179C31.9316 6.71179 32.9059 7.71656 32.9059 8.90402V15.2676C32.9059 19.2866 29.6176 22.575 25.5985 22.575C21.5794 22.575 18.2911 19.2866 18.2911 15.2676Z" fill="white"/>
<path d="M11.4787 8.20927C11.4787 6.23018 9.89546 4.61645 7.94682 4.61645C5.90683 4.61645 4.354 6.23018 4.354 8.20927C4.354 10.2188 5.90683 11.8021 7.94682 11.8021C9.89546 11.8021 11.4787 10.2188 11.4787 8.20927ZM0 8.20927C0 3.79437 3.53192 0.262451 7.94682 0.262451C12.3008 0.262451 15.8327 3.79437 15.8327 8.20927C15.8327 12.5937 12.3008 16.1256 7.94682 16.1256C3.53192 16.1256 0 12.5937 0 8.20927ZM4.90206 17.7698C5.54146 18.7441 6.66802 19.414 7.94682 19.414C9.16472 19.414 10.2913 18.7441 10.9307 17.7698C11.3874 17.1 12.0877 16.7041 12.8184 16.7041C13.1838 16.7041 13.5796 16.8259 13.9145 17.0391C14.9498 17.7394 15.2542 19.0486 14.6148 20.0838C13.1838 22.2761 10.7175 23.7375 7.94682 23.7375C5.08475 23.7375 2.61849 22.2761 1.18746 20.0838C0.578504 19.0486 0.852532 17.7394 1.88775 17.0391C2.28357 16.8259 2.64894 16.7041 3.04476 16.7041C3.7755 16.7041 4.4149 17.1 4.90206 17.7698Z" fill="white"/>
</svg>
