<svg width="92" height="54" viewBox="0 0 92 54" fill="none" xmlns="http://www.w3.org/2000/svg">
<path d="M73.1386 23.7148C73.1386 23.7148 73.51 24.3663 73.8553 24.9722C72.6956 24.2164 71.2232 23.6561 71.2232 23.6561L69.1514 24.8028L70.1743 26.5879L68.4152 24.8614L69.3338 26.6466L68.0634 25.539C68.0634 25.539 66.8321 25.9429 65.4509 28.5555C64.0697 31.168 63.9915 32.471 63.9915 32.471C63.9915 32.471 65.503 31.7543 67.1448 31.409C68.8257 31.0703 69.4837 31.1289 69.4837 31.1289C69.4837 31.1289 69.2035 30.6468 68.7931 30.1256C70.1091 30.6077 70.7541 31.194 70.7541 31.194L72.7021 29.65C72.7021 29.65 72.422 28.2362 72.1744 27.6629C72.7738 28.3861 73.1973 29.448 73.1973 29.448C73.1973 29.448 73.3666 28.4252 73.3862 27.6824C73.8162 28.4968 74.168 29.2135 74.168 29.2135C74.168 29.2135 74.4286 29.005 74.813 28.6858C74.8716 28.6336 74.9433 28.5815 75.0084 28.5229C74.9954 28.5555 74.9824 28.5815 74.9693 28.6141C74.7543 29.0767 74.5459 29.5392 74.3569 30.0018C73.9139 31.2787 73.4904 32.484 73.093 33.6176C68.5651 46.4458 66.5389 50.9477 65.1577 53.0064C63.568 52.0161 62.5126 50.2571 62.5126 48.2439V19.5908L63.4638 19.6364L64.9948 18.0337L64.1609 20.2813L65.7375 18.3008L64.9557 20.7048C64.9557 20.7048 65.5616 20.6071 66.4021 20.6527C67.249 20.6983 68.4282 20.8156 68.4282 20.8156C68.4282 20.8156 69.9593 19.682 71.158 19.1543C70.3437 19.9426 69.0211 21.3172 69.0211 21.3172C69.0211 21.3172 70.0375 21.3824 70.4284 21.3954C70.8518 21.4215 71.2297 21.5713 71.2297 21.5713C71.2297 21.5713 72.9823 21.0045 74.1745 20.8351C73.295 21.2456 71.8161 22.1056 71.8161 22.1056L72.5718 22.4443H74.8651C74.0898 22.6268 72.9171 22.946 72.9171 22.946C72.9171 22.946 73.9856 23.3108 75.0345 23.7408C73.9204 23.6431 73.1517 23.6952 73.1517 23.6952L73.1386 23.7148ZM74.7153 18.7308L76.2007 16.9326L74.2071 18.177L75.4059 15.7925L73.8422 17.4929C72.5914 16.6785 71.0864 16.1052 71.0864 16.1052L72.7021 14.4569L70.3372 15.6231C70.3372 15.6231 70.1612 15.4993 68.9951 15.1019C67.8093 14.6654 66.1154 14.5677 66.1154 14.5677C66.1154 14.5677 67.2555 14.2419 68.2523 13.9031C67.0861 13.9748 64.2977 14.4308 64.2977 14.4308C64.2977 14.4308 65.8483 13.2646 67.9852 12.6197C65.0925 12.6783 62.7341 14.926 62.5061 17.7731C64.9166 16.685 68.4673 15.7599 71.7509 17.519C74.7609 19.1282 76.5525 21.4345 77.5949 23.2587C77.3669 21.5778 76.5655 20.112 74.7087 18.7177L74.7153 18.7308ZM76.1812 15.0302C78.2725 17.6428 78.8979 20.0207 78.9044 21.845C81.6082 16.3072 85.9472 14.0269 89.6673 14.2093C88.6575 13.2256 87.2763 12.6197 85.7517 12.6197H72.9823C74.0963 13.0301 75.1843 13.7793 76.1746 15.0302H76.1812ZM89.7846 19.1673L89.2568 17.3952L89.1265 19.2129L87.6151 16.457L87.9147 18.8415C87.9147 18.8415 86.084 19.6689 84.6637 21.3759C84.6181 21.3954 84.6116 21.428 84.6116 21.428C83.4845 19.8644 82.5138 19.3106 82.5138 19.3106L84.0383 21.8906C83.9862 21.858 82.2923 20.7765 81.517 20.327C82.3248 21.0762 83.6669 22.2815 83.6669 22.2815L81.0283 21.213L83.0154 22.6528C82.1229 22.9851 81.3802 23.4346 80.6961 23.9037C83.8884 22.8939 87.9864 22.1903 91.3612 23.5454V19.0174C90.2536 19.0174 89.7846 19.1673 89.7846 19.1673ZM86.3707 26.9853C86.3251 27.0114 86.2925 26.9984 86.2925 26.9984C86.5987 25.3044 86.2664 24.3076 86.2664 24.3076L85.5367 26.9072C85.5367 26.9072 85.0742 25.0438 84.8201 24.249C84.8722 25.2328 84.983 26.842 84.983 26.842L83.8624 24.4575L84.2663 26.6205C82.8135 25.995 81.4453 25.6758 80.2205 25.5846C80.7026 25.767 81.2042 25.995 81.6538 26.2752C83.1522 27.2068 84.6246 28.6988 84.6246 28.6988L82.605 29.435L85.1002 29.4545C85.1002 29.4545 85.5107 29.865 86.0123 30.7771C86.4879 31.6762 86.9179 32.7055 86.9179 32.7055L84.8331 32.8489L86.9635 33.4743L87.2111 34.3017C87.4587 35.1291 87.3545 37.4224 87.3545 37.4224L85.5172 37.3573L87.1785 38.3345C87.1785 38.3345 87.2632 38.6473 86.5922 40.0154C85.9081 41.4162 83.1066 43.4098 83.1066 43.4098C84.325 39.9242 83.2239 38.0479 83.2239 38.0479L82.4747 37.9241L84.364 36.7905L82.0447 37.683C82.0447 37.683 83.1066 36.6862 83.5366 36.2106L82.1163 36.6341L81.5105 33.6176L83.465 32.6143L80.9176 32.9727L80.2791 31.3439L81.3671 29.3177L79.7123 31.0963C79.7123 31.0963 79.6211 28.9594 79.2367 27.5521C79.1259 27.2068 78.9956 26.8941 78.8588 26.6205C77.1584 29.7868 72.2135 40.9927 79.2562 53.8729H85.7387C88.8399 53.8729 91.3482 51.3581 91.3482 48.2635V26.855L90.5208 27.7476C90.5208 27.7476 88.6118 26.9788 86.3511 26.9984L86.3707 26.9853Z" fill="url(#paint0_linear_1_15679)"/>
<path d="M33.5402 32.0605L31.5401 31.2527V26.9006L34.8432 27.3111L38.2962 28.601L33.5402 32.0605ZM54.7923 0.0130309H37.1495C34.0484 0.0130309 31.5401 2.52784 31.5401 5.62248V23.0763L35.2797 22.8222L37.7033 20.7895C37.8271 20.6918 37.9769 20.6397 38.1463 20.6397C38.4982 20.6397 38.9086 20.8481 39.2278 21.2195C39.5992 21.6495 39.6969 22.1707 39.5536 22.5225L47.8212 21.9752L53.9909 17.5515C54.245 17.343 55.0854 16.1573 56.4666 15.5123C57.9781 14.8217 58.0954 15.0823 59.0792 15.0302C59.5157 15.0041 59.9717 14.9129 60.4017 14.8478V5.60946C60.4017 2.50829 57.8869 0 54.7923 0V0.0130309ZM51.0657 26.7768L52.2775 26.5749V29.5913C52.5902 29.6044 52.8964 29.7868 53.144 30.119C53.4893 30.5816 53.5153 31.168 53.1831 31.409L52.3231 32.0931L52.3491 36.2888C52.3752 37.0771 52.056 37.4289 51.6455 37.683L50.4207 38.3932L47.6322 32.4123L44.1011 31.3569C43.834 31.4807 42.342 32.5036 39.0128 34.0737C35.1494 35.8588 34.0093 36.1911 33.7487 36.3409L34.1787 38.4192C34.2569 38.7775 33.4099 39.3769 33.1363 39.2401L31.5336 38.3736V48.2374C31.5336 51.332 34.0484 53.8468 37.143 53.8468H54.7858C57.8869 53.8468 60.3952 51.332 60.3952 48.2374V19.4409C57.1442 22.7896 51.3588 26.6205 51.0526 26.7573L51.0657 26.7768Z" fill="url(#paint1_linear_1_15679)"/>
<rect y="19.0827" width="29.6391" height="34.9173" rx="6" fill="#D82A2B"/>
<path d="M18.9705 43.7608C19.0247 43.8698 19.07 43.9692 19.1207 44.0655C19.1846 44.1866 19.2439 44.3022 19.397 44.3394C19.4661 44.3562 19.5469 44.4535 19.5688 44.5313C19.6603 44.8562 19.8271 45.1322 20.0184 45.3962C20.0307 45.4131 20.0337 45.4374 20.0619 45.5181C19.7042 45.3228 19.3836 45.4041 19.0599 45.4987C19.005 45.5147 18.932 45.4607 18.8795 45.4432C18.9188 45.3299 18.9649 45.2424 18.977 45.1499C18.991 45.0433 18.9467 44.9768 18.8422 44.9085C18.7291 44.8347 18.6648 44.6744 18.5844 44.5482C18.558 44.5066 18.5475 44.4535 18.5303 44.407C18.2553 44.4059 18.193 44.4915 18.2205 44.7777C18.2358 44.937 18.2386 45.1044 18.2094 45.2602C18.1655 45.494 17.9475 45.6064 17.7335 45.5345C17.6409 45.5034 17.5464 45.4485 17.4545 45.4525C17.3143 45.4586 17.2166 45.5602 17.1618 45.6996C17.1102 45.8308 17.03 45.9116 16.8846 45.8884C16.8582 45.8842 16.8226 45.8814 16.8039 45.8961C16.5965 46.0593 16.4507 45.9053 16.2966 45.7898C16.2747 45.7734 16.2503 45.7607 16.2201 45.742C16.116 45.8266 16.0132 45.9102 15.9105 45.9937C15.8986 45.988 15.8866 45.9823 15.8747 45.9765C15.8887 45.8902 15.908 45.8044 15.9152 45.7175C15.9216 45.6396 15.9341 45.5525 15.9092 45.4837C15.8614 45.3521 15.7692 45.3324 15.685 45.4401C15.5743 45.5818 15.4685 45.6072 15.3175 45.5105C15.2033 45.4373 15.1204 45.4941 15.0831 45.6287C15.0545 45.7315 15.0212 45.8327 14.9947 45.9195C14.9682 45.6024 14.9504 45.2789 14.9076 44.9592C14.8978 44.8857 14.8086 44.8167 14.7445 44.7604C14.6385 44.6674 14.5255 44.5825 14.4102 44.5029C14.3804 44.4824 14.3255 44.4799 14.2912 44.494C14.1559 44.5495 14.0518 44.5579 13.9501 44.4067C13.9103 44.3476 13.774 44.3364 13.6851 44.3447C13.4764 44.3641 13.4336 44.3473 13.3707 44.1853C13.4942 44.0061 13.61 43.8565 13.7057 43.6935C13.7889 43.5517 13.773 43.4026 13.7105 43.2438C13.6481 43.0852 13.6119 42.9115 13.5895 42.7407C13.5824 42.6862 13.6474 42.61 13.695 42.5607C13.8281 42.4227 13.8172 42.2508 13.6664 42.1416C13.6334 42.1177 13.6066 42.0672 13.5984 42.0243C13.5498 41.7683 13.5074 41.511 13.4663 41.2737C13.7397 41.1227 14.0463 40.9703 14.3349 40.7861C14.4566 40.7084 14.5507 40.6402 14.7086 40.6536C14.9406 40.6734 15.1208 40.5074 15.2833 40.3537C15.365 40.2765 15.3162 40.1751 15.2295 40.1033C15.1381 40.0277 15.0537 39.9425 14.9365 39.8339C15.0773 39.7424 15.1764 39.6745 15.2785 39.6123C15.6484 39.3867 16.0086 39.1386 16.3937 38.947C16.6495 38.8198 16.9414 38.7742 17.2271 38.6891C17.3486 39.0603 17.303 39.3605 17.1128 39.6364C17.0288 39.7582 16.9484 39.8909 16.8401 39.9844C16.5289 40.2529 16.7652 40.8831 17.0893 40.968C17.1421 40.9818 17.1937 41.0007 17.2205 41.0092C17.1981 41.1876 17.159 41.3567 17.1636 41.5244C17.1658 41.6034 17.237 41.7231 17.3031 41.7488C17.4604 41.8101 17.5102 41.9229 17.5253 42.078C17.5337 42.1644 17.5461 42.2504 17.559 42.3547C17.6336 42.3209 17.7003 42.2907 17.7733 42.2576C17.8104 42.3267 17.8452 42.3915 17.8811 42.4582C18.1966 42.3831 18.4863 42.2645 18.7066 41.986C18.6421 42.6099 18.6595 43.2037 18.9705 43.7608Z" fill="white"/>
<path d="M28.0181 33.4919C28.0337 33.4925 28.0492 33.493 28.08 33.5058C28.1547 33.672 28.2234 33.5058 28.2867 33.5243C28.3969 33.4518 28.5026 33.3695 28.6185 33.3093C28.796 33.217 28.9806 33.1399 29.1623 33.0563C29.1726 33.0692 29.1829 33.0821 29.1933 33.0949C29.1548 33.2188 29.1164 33.3427 29.0795 33.4802C29.0491 33.6286 29.0256 33.7665 28.9832 33.8976C28.934 34.0502 28.8256 34.1341 28.6691 34.1276C28.4807 34.1197 28.3208 34.1923 28.1574 34.2862C27.8061 34.4881 27.4427 34.6661 27.0884 34.8623C26.8822 34.9765 26.7295 35.1545 26.6502 35.387C26.5275 35.7466 26.2867 35.9896 25.99 36.1824C25.5872 36.444 25.2202 36.7531 24.8515 37.0665C24.5231 37.3456 24.1205 37.5279 23.7456 37.7429C23.6017 37.8254 23.4434 37.8795 23.2921 37.9477C23.0083 38.0756 22.7399 38.2271 22.5142 38.4583C22.2381 38.7411 21.9505 39.0112 21.671 39.2903C21.4644 39.4966 21.3927 39.7668 21.3547 40.0552C21.3174 40.3387 21.2738 40.3957 21.0047 40.4238C20.7772 40.4475 20.5422 40.4554 20.3168 40.4219C19.9407 40.3661 19.6428 40.4847 19.4221 40.8014C19.2929 40.9868 19.1846 41.19 19.0802 41.3929C18.975 41.5972 18.9024 41.8303 18.6186 41.8085C18.6011 41.8071 18.5709 41.8253 18.5651 41.8418C18.4604 42.1351 18.1649 42.0833 17.9711 42.2315C17.929 42.1474 17.8935 42.0767 17.8528 41.9954C17.8031 42.0211 17.7557 42.0455 17.7004 42.074C17.6627 41.9484 17.6314 41.828 17.5899 41.7117C17.558 41.6221 17.5323 41.5263 17.4057 41.5209C17.3813 41.5199 17.3307 41.3812 17.3461 41.3217C17.3847 41.1735 17.4542 41.0344 17.5172 40.8769C17.4218 40.8606 17.3272 40.8453 17.2329 40.8283C17.0519 40.7956 16.9683 40.6617 16.9164 40.4904C16.8686 40.3324 16.8839 40.1967 17.0029 40.0762C17.3578 39.7164 17.5511 39.2944 17.4225 38.7479C17.5751 38.7361 17.7227 38.7532 17.8525 38.7099C18.4253 38.519 19.0203 38.4054 19.5664 38.1178C19.9039 37.94 20.2729 37.8311 20.6181 37.668C20.8567 37.5553 21.0772 37.4002 21.3084 37.2691C21.486 37.1683 21.6728 37.0846 21.8461 36.9763C22.0128 36.8722 22.1897 36.7692 22.3223 36.6247C22.5352 36.3927 22.7159 36.1275 22.9088 35.8751C22.9821 35.7791 23.0585 35.716 23.1897 35.7515C23.3268 35.7887 23.4708 35.8251 23.6099 35.8183C23.741 35.812 23.8886 35.7793 23.9953 35.7044C24.2102 35.5538 24.4344 35.4536 24.6854 35.3953C24.9154 35.342 25.1462 35.2661 25.2562 35.0044C25.2605 34.9941 25.2666 34.9772 25.2733 34.9763C25.5238 34.9448 25.5646 34.705 25.689 34.5382C25.7692 34.4307 25.946 34.4021 26.0818 34.3443C26.1527 34.3141 26.2272 34.2855 26.3023 34.2761C26.536 34.2469 26.7137 34.1087 26.8937 33.9653C26.9482 33.9219 27.0432 33.8838 27.0997 33.9045C27.3264 33.9874 27.5055 33.8894 27.7037 33.7578C27.8126 33.6734 27.903 33.602 27.9935 33.5306C27.9935 33.5306 27.9915 33.5282 27.9972 33.5238C28.0084 33.5105 28.0135 33.5013 28.0181 33.4919Z" fill="white"/>
<path d="M15.0009 40.2341C14.9835 40.3971 14.8952 40.4559 14.7433 40.4512C14.5809 40.4461 14.3955 40.4037 14.3077 40.6242C14.3024 40.6374 14.2816 40.6519 14.2681 40.6519C14.021 40.6517 13.8709 40.8578 13.6733 40.9621C13.5667 41.0184 13.4537 41.0663 13.3386 41.0979C13.2143 41.132 13.1282 41.1682 13.2277 41.3028C12.8032 41.3155 12.3802 41.322 11.9579 41.3439C11.7944 41.3523 11.7384 41.5067 11.6993 41.644C11.5763 42.0767 11.4876 42.1565 11.0566 42.1517C10.8048 42.1489 10.5532 42.1189 10.3016 42.1203C10.1803 42.121 10.0594 42.1663 9.99371 42.1799C9.80033 42.1322 9.64821 42.0935 9.49551 42.0575C9.38453 42.0314 9.26234 42.0316 9.16346 41.9803C8.93195 41.8602 8.75491 41.9299 8.58718 42.1082C8.43768 42.2672 8.43382 42.2642 8.31595 42.0863C8.2366 41.9665 8.13397 41.9228 7.99273 41.9242C7.90129 41.9252 7.79613 41.8833 7.72025 41.826C7.55679 41.7027 7.41191 41.7667 7.25023 41.8228C7.12663 41.8657 6.99005 41.8736 6.85842 41.8815C6.70584 41.8907 6.55103 41.869 6.39951 41.8852C5.99089 41.9288 5.86717 41.977 5.66574 41.566C5.37208 41.6405 5.0894 41.7542 4.8015 41.7718C4.57833 41.7854 4.34464 41.6928 4.12338 41.6206C3.99544 41.5789 3.96681 41.4387 4.00662 41.3126C4.07977 41.0809 4.06105 40.8561 4.00619 40.6261C3.98772 40.5487 3.98582 40.464 3.991 40.3836C4.0017 40.2178 3.9958 40.0785 3.86307 39.9426C3.78789 39.8657 3.78376 39.6951 3.77469 39.5646C3.76105 39.3683 3.77114 39.1702 3.77114 38.9425C3.87527 38.9996 3.96654 39.0564 4.063 39.1003C4.14128 39.136 4.22721 39.1524 4.30691 39.1852C4.34356 39.2002 4.37817 39.2291 4.40559 39.2598C4.59678 39.4743 4.7943 39.655 5.10461 39.6499C5.27485 39.647 5.44683 39.7137 5.61684 39.7546C5.80877 39.8008 5.9977 39.8628 6.19093 39.9008C6.45884 39.9534 6.57681 39.8872 6.69903 39.6414C6.81997 39.6903 6.94038 39.7431 7.06338 39.7879C7.3511 39.8927 7.63678 39.9672 7.94592 39.8582C8.11785 39.7976 8.29175 39.848 8.43928 39.9758C8.56793 40.0873 8.7027 40.1477 8.84473 39.9922C8.86204 39.9733 8.8955 39.9566 8.91859 39.9601C9.22562 40.0071 9.53353 40.0501 9.83823 40.1109C10.0088 40.1449 10.1717 40.2222 10.3422 40.2568C10.4467 40.278 10.5592 40.256 10.6681 40.252C10.6947 40.251 10.7257 40.2326 10.747 40.2419C11.0549 40.3762 11.363 40.2913 11.6714 40.2487C11.7255 40.2412 11.7829 40.2321 11.8353 40.2429C12.2192 40.3219 12.5861 40.2569 12.9478 40.1147C13.0334 40.081 13.1304 40.0644 13.2217 40.0659C13.5181 40.0708 13.7838 39.9836 14.0598 39.8655C14.263 39.7785 14.5189 39.8208 14.7508 39.8272C14.792 39.8283 14.8344 39.9331 14.8697 39.9943C14.9137 40.0705 14.9509 40.1511 15.0009 40.2341Z" fill="white"/>
<path d="M6.90699 42.3811C6.78681 42.294 6.67693 42.2135 6.56705 42.1331C6.57443 42.1125 6.58182 42.092 6.58921 42.0714C6.76664 42.0879 6.94719 42.0879 7.12063 42.1252C7.30796 42.1655 7.47458 42.1629 7.58478 42.0469C7.71024 42.0615 7.8001 42.0846 7.8884 42.0792C8.01589 42.0714 8.11214 42.0881 8.15845 42.2387C8.19694 42.3639 8.45555 42.4818 8.57604 42.4419C8.59496 42.4356 8.62568 42.4164 8.62506 42.4048C8.61582 42.2308 8.74244 42.2124 8.85076 42.1982C8.95637 42.1842 9.06609 42.1984 9.17341 42.2079C9.32563 42.2212 9.4776 42.2392 9.62903 42.2603C9.67396 42.2666 9.74691 42.28 9.75548 42.3079C9.80408 42.4662 9.92054 42.4389 10.0261 42.4301C10.3975 42.399 10.7707 42.3776 11.139 42.3216C11.319 42.2943 11.4955 42.2116 11.6616 42.1272C11.7231 42.096 11.7733 41.9933 11.7885 41.9146C11.8405 41.6442 11.9172 41.5592 12.1752 41.5358C12.317 41.523 12.459 41.5119 12.5994 41.5002C12.7182 41.7006 12.7317 41.7108 12.9352 41.6098C13.2941 41.4319 13.4477 41.459 13.4122 41.9382C13.4054 42.0305 13.4687 42.1308 13.5071 42.2239C13.5328 42.286 13.5718 42.3418 13.6158 42.4198C13.3229 42.5072 13.3919 42.7235 13.4341 42.929C13.4516 43.0141 13.4709 43.0994 13.4975 43.1817C13.574 43.4188 13.5633 43.6383 13.3823 43.8193C13.3025 43.8991 13.211 43.9656 13.1166 44.045C13.2124 44.3687 13.4192 44.5797 13.7811 44.6011C13.87 44.6063 13.9569 44.6563 14.0438 44.6888C14.0795 44.7021 14.1211 44.7469 14.1454 44.737C14.2795 44.6819 14.3596 44.7925 14.4653 44.8302C14.6434 44.8939 14.7283 44.9993 14.7593 45.196C14.8029 45.4734 14.8199 45.7458 14.7643 46.0827C14.6726 46.0039 14.6007 45.961 14.5533 45.8975C14.4347 45.7382 14.3607 45.7114 14.1863 45.7916C14.126 45.8193 14.0671 45.8523 14.0046 45.8725C13.818 45.9327 13.7531 45.892 13.6865 45.6949C13.6354 45.5438 13.5697 45.4071 13.3903 45.3877C13.3452 45.3829 13.2946 45.3501 13.262 45.3143C13.1217 45.1608 12.986 45.2154 12.8521 45.3176C12.7442 45.3999 12.6478 45.4958 12.5015 45.3812C12.471 45.3572 12.3899 45.4059 12.3201 45.4242C12.2519 45.2037 12.1833 44.9653 12.1038 44.731C12.0576 44.5948 11.9988 44.4625 11.9359 44.3338C11.9066 44.2738 11.8641 44.2063 11.8106 44.1768C11.5137 44.0131 11.4236 43.7285 11.3716 43.4069C11.3577 43.3205 11.2765 43.2459 11.2242 43.1674C11.2119 43.149 11.1918 43.1363 11.1748 43.1216C10.8691 42.8575 10.7822 42.867 10.5573 43.2119C10.4781 43.3332 10.3907 43.3007 10.2844 43.2775C10.1594 43.2503 10.0293 43.2462 9.90108 43.2407C9.86768 43.2393 9.81154 43.2613 9.80238 43.2871C9.72717 43.4992 9.58019 43.3859 9.45877 43.3768C9.34352 43.3681 9.22841 43.3531 9.11416 43.3345C8.93787 43.3058 8.75677 43.2907 8.58794 43.235C8.37425 43.1645 8.17307 43.0525 7.96242 42.9701C7.67189 42.8564 7.37647 42.8381 7.08966 42.972C7.11124 42.8378 7.16615 42.7078 7.13845 42.6023C7.11573 42.5157 6.99473 42.4581 6.90699 42.3811Z" fill="white"/>
<path d="M5.92514 43.4062C5.5167 43.4875 5.1763 43.7004 4.83875 43.9162C4.78366 43.9514 4.74501 44.0299 4.71764 44.0971C4.60199 44.3809 4.41303 44.5589 4.11789 44.6024C4.04822 44.6127 3.97233 44.6283 3.91463 44.6671C3.74514 44.7811 3.60517 44.7166 3.4611 44.6129C3.35353 44.5355 3.23476 44.4753 3.12928 44.3951C3.08525 44.3617 3.05353 44.3003 3.03215 44.2447C2.96148 44.061 2.84591 44.0298 2.70333 44.161C2.62546 44.2327 2.53404 44.2922 2.47095 44.376C2.43351 44.4257 2.43438 44.5115 2.42704 44.5821C2.41955 44.6543 2.43915 44.7333 2.4187 44.7995C2.36424 44.9757 2.27993 44.9929 2.16213 44.8553C1.90037 44.5494 1.61896 44.3001 1.18893 44.3459C1.09996 44.3554 1.00033 44.2932 0.911027 44.2511C0.524668 44.0689 0.364375 43.7594 0.415136 43.2657C0.531212 43.2859 0.655625 43.2827 0.759496 43.3302C1.07021 43.4722 1.4049 43.5881 1.67206 43.7977C2.23234 44.2371 2.6151 44.1784 3.23008 43.5534C3.64239 43.1344 3.77751 42.5589 3.89276 41.9856C3.90862 41.9067 3.92334 41.8275 3.94618 41.7092C4.46217 42.0168 4.98498 42.041 5.49312 41.8275C5.61499 41.9074 5.71884 41.9874 5.83232 42.0466C5.94809 42.1071 6.05931 42.2199 6.20946 42.101C6.24282 42.0746 6.34038 42.1018 6.38563 42.1371C6.52085 42.2426 6.64117 42.3694 6.77401 42.4787C6.96176 42.6332 6.97773 42.7714 6.79084 42.9297C6.61161 43.0815 6.41986 43.2194 6.22218 43.3427C6.14334 43.3919 6.03382 43.3857 5.92514 43.4062Z" fill="white"/>
<path d="M11.9179 46.4762C12.0195 46.3033 12.1103 46.138 12.2154 45.9835C12.2396 45.9478 12.3124 45.9493 12.3628 45.9337C12.3561 45.9943 12.3703 46.0757 12.3387 46.1117C12.2331 46.2318 12.1659 46.3465 12.2452 46.5149C12.2592 46.5447 12.2301 46.6183 12.1999 46.6468C12.0899 46.7509 11.9622 46.807 11.7887 46.7523C11.8324 46.6588 11.8724 46.5733 11.9179 46.4762Z" fill="white"/>
<path d="M2.85359 44.8216C2.74662 44.8897 2.64858 44.949 2.55053 45.0084C2.53957 44.9986 2.5286 44.9889 2.51764 44.9791C2.55346 44.8931 2.59005 44.8073 2.62489 44.7208C2.65669 44.6418 2.73893 44.5556 2.57473 44.4966C2.6387 44.4578 2.68118 44.426 2.72795 44.4051C2.78918 44.3777 2.85379 44.3588 2.91695 44.3362C2.93478 44.413 2.9746 44.4931 2.96473 44.5656C2.95304 44.6514 2.89849 44.7307 2.85359 44.8216Z" fill="white"/>
<path d="M27.9812 33.5297C27.9031 33.6017 27.8127 33.6731 27.7111 33.7488C27.717 33.6791 27.7258 33.6011 27.7554 33.5334C27.7661 33.509 27.8266 33.5014 27.8647 33.5006C27.8992 33.4999 27.9342 33.5188 27.9812 33.5297Z" fill="white"/>
<path d="M7.04709 42.9702C7.04692 42.9807 7.03942 42.9832 7.03192 42.9857C7.03453 42.9779 7.03715 42.9701 7.04709 42.9702Z" fill="white"/>
<path d="M28.0111 33.4928C28.0135 33.5014 28.0084 33.5105 27.9978 33.5253C27.9921 33.5251 27.9916 33.5191 27.9905 33.5041C27.99 33.4951 28.0041 33.4935 28.0111 33.4928Z" fill="white"/>
<path d="M28.2867 33.5107C28.2233 33.5054 28.1546 33.6716 28.0915 33.5071C28.1404 33.4498 28.1931 33.4031 28.2676 33.3371C28.2766 33.4122 28.2817 33.4549 28.2867 33.5107Z" fill="white"/>
<path d="M14.4715 28.5975C14.8501 28.9802 15.0874 29.5086 15.0874 30.0941C15.0874 30.6796 15.0168 30.7168 14.8896 30.9881C14.7879 31.208 14.6467 31.4108 14.48 31.5822C14.4772 31.585 14.4743 31.5879 14.4687 31.5936C14.0901 31.9763 13.5674 32.2105 12.9882 32.2105C12.4091 32.2105 11.8892 31.9763 11.5078 31.5936C11.1292 31.2109 10.8975 30.6825 10.8975 30.097C10.8975 29.5115 10.9399 29.6171 11.0134 29.3972C11.0925 29.1659 11.2111 28.9517 11.3609 28.766C11.4061 28.7089 11.4569 28.6518 11.5078 28.6003C11.892 28.2176 12.4091 27.9777 12.9882 27.9777C13.5674 27.9777 14.0929 28.2176 14.4687 28.6003L14.4715 28.5975ZM17.8618 30.097C17.8618 28.7346 17.3194 27.5093 16.4351 26.6153C15.5564 25.7213 14.3387 25.1729 12.9911 25.1729C11.6434 25.1729 10.4314 25.7213 9.54706 26.6153C9.34647 26.8181 9.16283 27.0409 9.00179 27.2751C8.86617 27.4722 8.74186 27.6778 8.6345 27.8949C8.52714 28.1119 8.43391 28.3376 8.35762 28.5718C8.20223 29.0516 8.1203 29.5629 8.1203 30.097C8.1203 31.3594 8.61472 32.6732 9.34082 33.9185C10.3071 35.578 11.6123 37.0289 12.9798 38.357C12.9826 38.3599 12.9882 38.3656 12.9939 38.3684C13.0052 38.357 13.0165 38.3456 13.0278 38.3342C14.3924 37.0118 15.6836 35.5665 16.647 33.9185C16.6526 33.91 16.6583 33.9014 16.6611 33.8928C16.7854 33.6786 16.9069 33.4587 17.0143 33.2416C17.1273 33.016 17.2318 32.7903 17.325 32.5618C17.6641 31.7421 17.8647 30.9081 17.8647 30.097H17.8618Z" fill="white"/>
<defs>
<linearGradient id="paint0_linear_1_15679" x1="76.9369" y1="12.6262" x2="76.9369" y2="53.8599" gradientUnits="userSpaceOnUse">
<stop stop-color="#2ECC71"/>
<stop offset="1" stop-color="#27AE60"/>
</linearGradient>
<linearGradient id="paint1_linear_1_15679" x1="45.9709" y1="0.0130301" x2="45.9709" y2="53.8599" gradientUnits="userSpaceOnUse">
<stop stop-color="#4A90E2"/>
<stop offset="1" stop-color="#0077C8"/>
</linearGradient>
</defs>
</svg>
